<?xml version="1.0" encoding="UTF-8"?>
<svg id="uuid-cf574454-3bba-40d2-b488-66de65c94877" data-name="Layer 1" xmlns="http://www.w3.org/2000/svg" viewBox="0 0 48 48">
  <defs>
    <style>
      .uuid-1ac1f1b1-3657-41c5-8463-9c2886107253 {
        fill: #eff8f7;
      }

      .uuid-b24a6cc1-eba1-4afe-a82a-90c80c722e06 {
        fill: #14425b;
      }
    </style>
  </defs>
  <circle class="uuid-1ac1f1b1-3657-41c5-8463-9c2886107253" cx="25.75" cy="22.25" r="19.5"/>
  <path class="uuid-b24a6cc1-eba1-4afe-a82a-90c80c722e06" d="m32.81,15.89c-.41.53-1.01.87-1.67.96-.22.04-.45.06-.67.07-.27,0-.54-.04-.79-.13l-.61,1.55c-.04.07-.09.13-.16.18.03.31.03.61,0,.92l2.25.64c.25.07.4.33.34.58,0,0,0,.02,0,.03h0c-.06.21-.25.35-.46.34h-.13l-2.17-.63c-.2.75-.64,1.41-1.25,1.88l.09.08c.12.13.25.25.39.38.7.48,1.17,1.22,1.32,2.05.07,1.93-.08,3.86-.45,5.75-.18.69-.43,1.35-.75,1.99-.53,1.07-1.19,2.07-1.97,2.97-.29.31-.77.32-1.08.03-.14-.14-.23-.33-.24-.53v-3.39h-.26v8.38c-.24.77-.95,1.31-1.76,1.32h0c-.83,0-1.57-.52-1.82-1.32v-8.38h-.25v3.45c-.01.42-.37.75-.79.74,0,0,0,0,0,0-.2,0-.39-.09-.53-.24-.79-.9-1.45-1.9-1.97-2.97-.37-.65-.67-1.33-.89-2.04-.37-1.91-.52-3.86-.45-5.81.14-.83.62-1.57,1.32-2.05.13-.13.28-.25.38-.37.04-.03.08-.06.11-.11-.6-.48-1.04-1.14-1.25-1.88l-2.18.7h-.13c-.22.01-.41-.13-.46-.34-.08-.24.04-.5.28-.59,0,0,.01,0,.02,0h0l2.26-.66c-.03-.31-.03-.61,0-.92-.06-.04-.1-.1-.13-.17l-.53-1.57c-.25.09-.52.13-.79.13-.23,0-.45-.02-.67-.07-.66-.1-1.26-.44-1.67-.96-.17-.26-.23-.58-.16-.88.21-.78,1.32-1.17,2.47-.95.66.1,1.26.44,1.67.96.17.26.22.58.14.88v.07l.45,1.14c.23-.17.52-.24.8-.21l.3.07c-.1-.12-.21-.22-.33-.32-.46-.35-.54-1-.19-1.46.09-.12.21-.22.35-.29.79-.65,1.71-1.14,2.68-1.45,0,0,.66-.19,1.64-.24.73-.04,1.46.04,2.17.24,1.02.3,1.97.79,2.8,1.46.48.25.69.82.49,1.32-.06.12-.15.23-.25.33-.14.11-.27.23-.38.37l.3-.07c.29-.03.58.04.82.21l.46-1.14v-.07c-.09-.27-.07-.57.05-.83.42-.52,1.01-.86,1.67-.96,1.24-.22,2.26.17,2.47.95,0,0,.06.45-.25.88Zm-17.41-.29c-.23-.19-.52-.32-.82-.36-.34-.08-.7-.05-1.03.07.24.19.52.32.83.36.35.09.72.07,1.05-.07h-.04Zm10.89,6.66c0-.41.42-.64.57-.72.92-.83,1.33-2.08,1.08-3.29-.02-.19-.15-.34-.33-.39-.71.14-1,.2-1.21-.09-.7-.89.12-1.57.47-1.85v-.09l-.13-.12c-.76-.59-1.62-1.04-2.54-1.32-.59-.16-1.19-.23-1.79-.2-.53,0-1.38.2-1.38.2-.91.28-1.76.72-2.5,1.32-.12.08-.16.13-.16.14.03.05.06.09.11.13.59.32.82,1.06.51,1.66l-.11.16c-.22.28-.51.21-1.22.08-.14.05-.25.16-.29.3v.14c-.25,1.21.19,2.46,1.13,3.26.27.13.47.39.51.7-.03.3-.21.57-.49.7,0,0-.42.36-.58.49-.44.35-.75.84-.87,1.39-.08,1.84.06,3.69.42,5.5.17.63.4,1.23.68,1.82.4.83.88,1.61,1.45,2.33v-3.03c0-.46.38-.84.84-.84h.55c.46,0,.84.38.84.84v8.29c.15.34.48.56.85.57h0c.37,0,.7-.23.84-.57v-8.26c0-.46.38-.84.84-.84h.57c.46,0,.84.38.84.84v3c.59-.72,1.09-1.51,1.49-2.35.29-.58.52-1.19.68-1.82.36-1.81.5-3.66.42-5.51,0-.55-.54-1-.97-1.39-.16-.13-.54-.43-.54-.43-.33-.09-.57-.38-.61-.72Zm5.46-6.94c-.33-.12-.68-.14-1.03-.07-.3.04-.58.17-.82.36.32.12.68.14,1.01.07.32-.04.62-.16.87-.36h-.04Zm-6.18,5.26c.04.16.04.34-.03.5-.75,1.93-1.32,2.17-1.58,2.25-.37.16-.78.24-1.18.24h0c-.5,0-1.01-.08-1.49-.24-.21-.08-.84-.32-1.53-2.25-.15-.43.08-.89.5-1.04.14-.05.3-.06.45-.03l1.51.36c.32.11.8,0,.8,0l1.58-.39c.31-.08.63.03.83.28,0,0,.1.21.13.33Zm-1.04.42l-1.32.3c-.2.06-.41.1-.62.11h0c-.22,0-.44-.04-.66-.11l-1.21-.29c.15.54.46,1.03.87,1.41.37.12.76.17,1.14.17h0c.29,0,.58-.06.85-.17.21,0,.55-.41.97-1.42h-.04Zm-1.77,24.26c-11.03,0-20-8.97-20-20S11.72,5.25,22.75,5.25s20,8.97,20,20-8.97,20-20,20Zm0-39C12.27,6.25,3.75,14.77,3.75,25.25s8.52,19,19,19,19-8.52,19-19S33.23,6.25,22.75,6.25Z"/>
</svg>